<svg width="20" height="20" viewBox="0 0 20 20" fill="none" xmlns="http://www.w3.org/2000/svg">
<g clip-path="url(#clip0_2_44)">
<path d="M9.97998 19.459C4.75269 19.459 0.5 15.2067 0.5 9.97998C0.5 4.75272 4.75269 0.5 9.97998 0.5C15.2073 0.5 19.46 4.75272 19.46 9.97998C19.46 15.2067 15.2073 19.459 9.97998 19.459Z" fill="white"/>
<path d="M9.97998 18.959C14.9316 18.959 18.96 14.931 18.96 9.97998C18.96 5.02841 14.9316 1 9.97998 1C5.02838 1 1 5.02841 1 9.97998C1 14.931 5.02838 18.959 9.97998 18.959ZM9.97998 19.959C4.46899 19.959 0 15.491 0 9.97998C0 4.46899 4.46899 0 9.97998 0C15.491 0 19.96 4.46899 19.96 9.97998C19.96 15.491 15.491 19.959 9.97998 19.959Z" fill="#202020"/>
<path d="M3.98698 11.64C3.63622 11.2891 3.41104 10.8322 3.34641 10.3402C3.28179 9.84829 3.38128 9.34874 3.6295 8.9191C3.87771 8.48947 4.26081 8.15374 4.71928 7.964C5.17775 7.77425 5.68596 7.74107 6.1652 7.86963C6.64444 7.9982 7.06791 8.28129 7.36985 8.67502C7.6718 9.06876 7.83539 9.55112 7.83525 10.0473C7.8351 10.5435 7.67123 11.0258 7.36906 11.4193C7.06688 11.8129 6.6433 12.0958 6.16398 12.224C5.7818 12.3266 5.37931 12.3267 4.99711 12.2241C4.61491 12.1216 4.2665 11.9201 3.98698 11.64Z" fill="#202020"/>
<path d="M8.449 16.1C8.13166 15.7859 7.91472 15.3846 7.82571 14.947C7.7367 14.5094 7.77961 14.0553 7.949 13.6421C8.11839 13.2289 8.40669 12.8754 8.77725 12.6262C9.14781 12.377 9.584 12.2435 10.0305 12.2425C10.4771 12.2415 10.9138 12.3731 11.2855 12.6207C11.6571 12.8682 11.9469 13.2205 12.1181 13.6329C12.2893 14.0453 12.3342 14.4993 12.2472 14.9373C12.1601 15.3752 11.9449 15.7775 11.629 16.093C11.2078 16.5148 10.6365 16.7524 10.0404 16.7537C9.44434 16.755 8.87206 16.52 8.449 16.1Z" fill="#202020"/>
<path d="M12.9109 11.64C12.5954 11.3247 12.3805 10.9229 12.2934 10.4854C12.2062 10.048 12.2508 9.59451 12.4215 9.18237C12.5921 8.77024 12.8811 8.41795 13.252 8.1701C13.6229 7.92226 14.0589 7.78998 14.5049 7.78998C14.951 7.78998 15.387 7.92226 15.7579 8.1701C16.1288 8.41795 16.4178 8.77024 16.5884 9.18237C16.759 9.59451 16.8037 10.048 16.7165 10.4854C16.6294 10.9229 16.4145 11.3247 16.099 11.64C15.8899 11.8497 15.6414 12.0161 15.3679 12.1297C15.0944 12.2432 14.8011 12.3016 14.5049 12.3016C14.2088 12.3016 13.9155 12.2432 13.642 12.1297C13.3685 12.0161 13.12 11.8497 12.9109 11.64Z" fill="#202020"/>
<path d="M8.44998 7.17899C8.13264 6.86483 7.91576 6.46353 7.82675 6.02595C7.73774 5.58837 7.78065 5.13424 7.95004 4.72107C8.11943 4.30791 8.40766 3.95431 8.77822 3.70514C9.14879 3.45598 9.58498 3.32246 10.0315 3.32148C10.4781 3.32049 10.9148 3.45212 11.2865 3.69965C11.6581 3.94718 11.948 4.29947 12.1192 4.71189C12.2904 5.1243 12.3353 5.57827 12.2482 6.01624C12.1611 6.45421 11.9459 6.85645 11.63 7.172C11.2089 7.59404 10.6376 7.83179 10.0415 7.8331C9.4453 7.83442 8.87291 7.59917 8.44998 7.17899Z" fill="#202020"/>
<path d="M20.46 18.959H10.937C10.6609 18.959 10.437 19.1828 10.437 19.459C10.437 19.7351 10.6609 19.959 10.937 19.959H20.46C20.7362 19.959 20.96 19.7351 20.96 19.459C20.96 19.1828 20.7362 18.959 20.46 18.959Z" fill="white"/>
<path d="M10 19.459H19.523H10Z" stroke="#202020" stroke-miterlimit="10"/>
</g>
<defs>
<clipPath id="clip0_2_44">
<rect width="19.96" height="19.959" fill="white"/>
</clipPath>
</defs>
</svg>
