<svg xmlns="http://www.w3.org/2000/svg" width="18" height="20.001" viewBox="0 0 18 20.001">
  <g id="Group_869" data-name="Group 869" transform="translate(-738 -43)">
    <g id="Group_38" data-name="Group 38" transform="translate(738 43)">
      <g id="Path_85" data-name="Path 85" transform="translate(-649.056 -378.352)" fill="#fafafa" stroke-miterlimit="10">
        <path d="M 658.0560302734375 397.8529968261719 C 657.7947998046875 397.8529968261719 657.5369262695312 397.7844848632812 657.3101196289062 397.6548767089844 L 650.3104248046875 393.6470947265625 C 649.8450927734375 393.3807373046875 649.5560302734375 392.8818359375 649.5560302734375 392.3450012207031 L 649.5560302734375 384.3599853515625 C 649.5560302734375 383.8231811523438 649.8450927734375 383.3242492675781 650.3103637695312 383.0579528808594 L 657.3104248046875 379.0509338378906 C 657.5372924804688 378.9209289550781 657.7950439453125 378.8522644042969 658.0560302734375 378.8522644042969 C 658.3169555664062 378.8522644042969 658.57470703125 378.9209289550781 658.8013916015625 379.0508117675781 L 665.8015747070312 383.0579223632812 C 666.2669677734375 383.3242797851562 666.5560302734375 383.8232116699219 666.5560302734375 384.3599853515625 L 666.5560302734375 392.3450012207031 C 666.5560302734375 392.8818054199219 666.2669677734375 393.3807373046875 665.8016357421875 393.6470336914062 L 658.8015747070312 397.6550903320312 C 658.5750732421875 397.7844848632812 658.3171997070312 397.8529968261719 658.0560302734375 397.8529968261719 Z" stroke="none"/>
        <path d="M 658.0560302734375 379.3522644042969 C 657.8821411132812 379.3522644042969 657.7103271484375 379.3980407714844 657.5587768554688 379.4848937988281 L 650.5587768554688 383.4918823242188 C 650.2486572265625 383.6693725585938 650.0560302734375 384.0020141601562 650.0560302734375 384.3599853515625 L 650.0560302734375 392.3450012207031 C 650.0560302734375 392.7030029296875 650.2486572265625 393.0356140136719 650.5588989257812 393.2131652832031 L 657.5581665039062 397.2207641601562 C 657.7095336914062 397.3072814941406 657.8817138671875 397.3529968261719 658.0560302734375 397.3529968261719 C 658.2302856445312 397.3529968261719 658.4024658203125 397.3072814941406 658.5531005859375 397.2211608886719 L 665.5532836914062 393.2130737304688 C 665.8634033203125 393.0355834960938 666.0560302734375 392.7029724121094 666.0560302734375 392.3450012207031 L 666.0560302734375 384.3599853515625 C 666.0560302734375 384.0020141601562 665.8633422851562 383.6694030761719 665.55322265625 383.4918518066406 L 658.5527954101562 379.4846496582031 C 658.4016723632812 379.3980407714844 658.2298583984375 379.3522644042969 658.0560302734375 379.3522644042969 M 658.0560302734375 378.3522644042969 C 658.3989868164062 378.3522644042969 658.7420043945312 378.4405212402344 659.0499877929688 378.6170043945312 L 666.0499877929688 382.6239929199219 C 666.6719970703125 382.9800109863281 667.0560302734375 383.6430053710938 667.0560302734375 384.3599853515625 L 667.0560302734375 392.3450012207031 C 667.0560302734375 393.06298828125 666.6719970703125 393.7250061035156 666.0499877929688 394.0809936523438 L 659.0499877929688 398.0889892578125 C 658.4340209960938 398.4410400390625 657.677978515625 398.4409790039062 657.06201171875 398.0889892578125 L 650.06201171875 394.0809936523438 C 649.4400024414062 393.7250061035156 649.0560302734375 393.06298828125 649.0560302734375 392.3450012207031 L 649.0560302734375 384.3599853515625 C 649.0560302734375 383.6430053710938 649.4400024414062 382.9800109863281 650.06201171875 382.6239929199219 L 657.06201171875 378.6170043945312 C 657.3699951171875 378.4405212402344 657.7130126953125 378.3522644042969 658.0560302734375 378.3522644042969 Z" stroke="none" fill="#202020"/>
      </g>
      <g id="Path_86" data-name="Path 86" transform="translate(-649.056 -378.352)" fill="#fafafa" stroke-miterlimit="10">
        <path d="M 660.482177734375 392.3521423339844 C 660.4794311523438 392.3521423339844 660.4710083007812 392.3521423339844 660.45556640625 392.3436889648438 L 658.5636596679688 391.3047485351562 C 658.4086303710938 391.2193298339844 658.23291015625 391.1740112304688 658.0560302734375 391.1740112304688 C 657.8790893554688 391.1740112304688 657.703369140625 391.2193298339844 657.5477294921875 391.3050842285156 L 655.6553955078125 392.3436889648438 C 655.6400756835938 392.3521423339844 655.6319580078125 392.3521423339844 655.6293334960938 392.3521423339844 C 655.6139526367188 392.3521423339844 655.5938720703125 392.3406982421875 655.579345703125 392.3236389160156 C 655.558837890625 392.2994384765625 655.5514526367188 392.2685241699219 655.5574951171875 392.2317504882812 L 655.9193725585938 390.0301208496094 C 655.9771118164062 389.6802368164062 655.8645629882812 389.3209838867188 655.618408203125 389.0693359375 L 654.0867309570312 387.5096435546875 C 654.0440673828125 387.4663696289062 654.0557250976562 387.4130554199219 654.0626831054688 387.3921203613281 C 654.0744018554688 387.356689453125 654.0946044921875 387.3365478515625 654.1226806640625 387.3322448730469 L 656.2389526367188 387.0113525390625 C 656.59033203125 386.95849609375 656.8927001953125 386.7310791015625 657.0472412109375 386.4031677246094 L 657.9940795898438 384.3996276855469 C 658.0037231445312 384.379150390625 658.0205078125 384.3522338867188 658.0560302734375 384.3522338867188 C 658.0914916992188 384.3522338867188 658.1082763671875 384.379150390625 658.1178588867188 384.3994140625 L 659.0638427734375 386.4034423828125 C 659.2208251953125 386.732421875 659.5233764648438 386.9590148925781 659.8740234375 387.0115051269531 L 661.989013671875 387.3323669433594 C 662.0167236328125 387.3366088867188 662.0370483398438 387.356689453125 662.0487670898438 387.3919982910156 C 662.0557861328125 387.4130249023438 662.0675659179688 387.4666442871094 662.025390625 387.5095520019531 L 660.4942626953125 389.0686645507812 C 660.2474365234375 389.3209838867188 660.1348876953125 389.6802368164062 660.192626953125 390.0303344726562 L 660.5535888671875 392.2319030761719 C 660.5597534179688 392.2691650390625 660.5525512695312 392.2998046875 660.5322875976562 392.3236999511719 C 660.517822265625 392.3407287597656 660.4976806640625 392.3521423339844 660.482177734375 392.3521423339844 Z" stroke="none"/>
        <path d="M 658.0557861328125 385.4392395019531 L 657.49951171875 386.6163635253906 C 657.273681640625 387.0955200195312 656.8300170898438 387.4280395507812 656.3139038085938 387.5057067871094 L 654.9819946289062 387.7076721191406 L 655.975830078125 388.7197265625 C 656.3329467773438 389.0847473144531 656.4962158203125 389.6051025390625 656.4127807617188 390.1112365722656 L 656.1875610351562 391.4812622070312 L 657.3063354492188 390.8672180175781 C 657.5357055664062 390.7408142089844 657.794921875 390.6740112304688 658.0560302734375 390.6740112304688 C 658.3170776367188 390.6740112304688 658.5762329101562 390.7408142089844 658.8043212890625 390.8664855957031 L 659.923828125 391.4812622070312 L 659.6992797851562 390.1116638183594 C 659.6157836914062 389.6050415039062 659.7791137695312 389.0846862792969 660.1375122070312 388.7183227539062 L 661.1299438476562 387.707763671875 L 659.800048828125 387.5059814453125 C 659.2847900390625 387.4288940429688 658.8412475585938 387.0979309082031 658.6116943359375 386.6168823242188 L 658.0557861328125 385.4392395019531 M 658.0559692382812 383.8522338867188 C 658.260498046875 383.8522338867188 658.4649658203125 383.9635009765625 658.5700073242188 384.1860046386719 L 659.5159912109375 386.1900024414062 C 659.5999755859375 386.3659973144531 659.760986328125 386.489013671875 659.947998046875 386.5169982910156 L 662.0640258789062 386.8380126953125 C 662.5349731445312 386.9100036621094 662.7219848632812 387.5140075683594 662.3820190429688 387.8599853515625 L 660.8510131835938 389.4190063476562 C 660.7160034179688 389.5570068359375 660.6539916992188 389.7550048828125 660.6859741210938 389.9490051269531 L 661.0469970703125 392.1510009765625 C 661.1279907226562 392.6400146484375 660.635986328125 393.0130920410156 660.2150268554688 392.7820129394531 L 658.322998046875 391.7430114746094 C 658.1560668945312 391.6510925292969 657.9560546875 391.6510314941406 657.7890014648438 391.7430114746094 L 655.89599609375 392.7820129394531 C 655.4758911132812 393.0130615234375 654.9840087890625 392.6399536132812 655.0640258789062 392.1510009765625 L 655.426025390625 389.9490051269531 C 655.4580078125 389.7550048828125 655.39599609375 389.5570068359375 655.260986328125 389.4190063476562 L 653.72998046875 387.8599853515625 C 653.3889770507812 387.5140075683594 653.5770263671875 386.9100036621094 654.0469970703125 386.8380126953125 L 656.1640014648438 386.5169982910156 C 656.3499755859375 386.489013671875 656.5120239257812 386.3659973144531 656.594970703125 386.1900024414062 L 657.5419921875 384.1860046386719 C 657.64697265625 383.9635009765625 657.8515014648438 383.8522338867188 658.0559692382812 383.8522338867188 Z" stroke="none" fill="#202020"/>
      </g>
    </g>
  </g>
</svg>
