<svg xmlns="http://www.w3.org/2000/svg" width="18.09" height="20" viewBox="0 0 18.09 20">
  <g id="Group_868" data-name="Group 868" transform="translate(-623 -42)">
    <g id="Path_158" data-name="Path 158" transform="translate(-1.609 -334.461)" fill="#fff" stroke-miterlimit="10">
      <path d="M 641.6380004882812 395.9609985351562 L 641.6339721679688 395.9609985351562 L 636.9000244140625 395.9609985351562 C 636.5890502929688 395.9609985351562 636.3359985351562 395.7079772949219 636.3359985351562 395.3970031738281 L 636.3359985351562 393.1369934082031 C 636.3359985351562 392.594970703125 635.8949584960938 392.1539916992188 635.352783203125 392.1539916992188 L 631.9413452148438 392.1650085449219 C 631.3992919921875 392.1669921875 630.9600219726562 392.6096801757812 630.9619750976562 393.1518249511719 L 630.9719848632812 395.4052429199219 C 630.9703979492188 395.7095336914062 630.71875 395.9609985351562 630.4110107421875 395.9609985351562 L 625.6719970703125 395.9609985351562 C 625.361572265625 395.9609985351562 625.1090087890625 395.7084350585938 625.1090087890625 395.3980102539062 L 625.1090087890625 384.2839965820312 C 625.1090087890625 384.1199645996094 625.1814575195312 383.9649353027344 625.3078002929688 383.8587036132812 L 633.288330078125 377.0934143066406 C 633.3892211914062 377.0082397460938 633.5185546875 376.9609985351562 633.6519775390625 376.9609985351562 C 633.787841796875 376.9609985351562 633.9163208007812 377.0076293945312 634.0167236328125 377.09228515625 L 641.9996948242188 383.8584289550781 C 642.1272583007812 383.965087890625 642.198974609375 384.1194458007812 642.198974609375 384.2839965820312 L 642.198974609375 395.4030151367188 C 642.1973876953125 395.7095336914062 641.9457397460938 395.9609985351562 641.6380004882812 395.9609985351562 Z" stroke="none"/>
      <path d="M 641.6380004882812 395.4609985351562 C 641.6705932617188 395.4609985351562 641.6983642578125 395.4325866699219 641.698974609375 395.3987426757812 L 641.698974609375 384.2839965820312 C 641.698974609375 384.2679443359375 641.692626953125 384.2533874511719 641.6814575195312 384.2441101074219 L 641.6764526367188 384.2398376464844 L 633.6945190429688 377.474609375 C 633.6756591796875 377.4586791992188 633.633056640625 377.4567565917969 633.6116943359375 377.4748229980469 L 625.629638671875 384.2413635253906 C 625.6163330078125 384.2525634765625 625.6090087890625 384.2677001953125 625.6090087890625 384.2839965820312 L 625.6090087890625 395.3980102539062 C 625.6090087890625 395.4309692382812 625.6390380859375 395.4609985351562 625.6719970703125 395.4609985351562 L 630.4110107421875 395.4609985351562 C 630.4432983398438 395.4609985351562 630.4708251953125 395.43310546875 630.4719848632812 395.3996887207031 L 630.4619750976562 393.1536254882812 C 630.458984375 392.3358154296875 631.1217651367188 391.6680297851562 631.9397583007812 391.6650085449219 L 635.352783203125 391.6539916992188 C 636.170654296875 391.6539916992188 636.8359985351562 392.3192749023438 636.8359985351562 393.1369934082031 L 636.8359985351562 395.3970031738281 C 636.8359985351562 395.4299011230469 636.8671264648438 395.4609985351562 636.9000244140625 395.4609985351562 L 641.6380004882812 395.4609985351562 M 641.6380004882812 396.4609985351562 L 636.9000244140625 396.4609985351562 C 636.3150024414062 396.4609985351562 635.8359985351562 395.9819946289062 635.8359985351562 395.3970031738281 L 635.8359985351562 393.1369934082031 C 635.8359985351562 392.87060546875 635.6199951171875 392.6539916992188 635.352783203125 392.6539916992188 C 635.3521728515625 392.6539916992188 635.3516235351562 392.6539916992188 635.3510131835938 392.6539916992188 L 631.9429931640625 392.6650085449219 C 631.676025390625 392.6659851074219 631.4609985351562 392.8829956054688 631.4619750976562 393.1499938964844 L 631.4719848632812 395.4030151367188 C 631.468994140625 395.9880065917969 630.9940185546875 396.4609985351562 630.4110107421875 396.4609985351562 L 625.6719970703125 396.4609985351562 C 625.0869750976562 396.4609985351562 624.6090087890625 395.9830017089844 624.6090087890625 395.3980102539062 L 624.6090087890625 384.2839965820312 C 624.6090087890625 383.9719848632812 624.7470092773438 383.677001953125 624.9860229492188 383.4760131835938 L 632.9650268554688 376.7120056152344 C 633.1580200195312 376.5490112304688 633.4019775390625 376.4609985351562 633.6519775390625 376.4609985351562 L 633.655029296875 376.4609985351562 C 633.905029296875 376.4609985351562 634.1480102539062 376.5490112304688 634.3389892578125 376.7099914550781 L 642.322998046875 383.4769897460938 C 642.5609741210938 383.6759948730469 642.698974609375 383.9710083007812 642.698974609375 384.2839965820312 L 642.698974609375 395.4030151367188 C 642.6959838867188 395.9880065917969 642.2210083007812 396.4609985351562 641.6380004882812 396.4609985351562 Z" stroke="none" fill="#202020"/>
    </g>
  </g>
</svg>
