<svg xmlns="http://www.w3.org/2000/svg" width="16.761" height="20" viewBox="0 0 16.761 20">
  <g id="Group_870" data-name="Group 870" transform="translate(-873 -43)">
    <g id="Group_48" data-name="Group 48" transform="translate(873 43)">
      <g id="Path_99" data-name="Path 99" transform="translate(-747.844 -378.166)" fill="#fff" stroke-miterlimit="10">
        <path d="M 756.2239990234375 397.6659851074219 C 755.1568603515625 397.6659851074219 754.1220092773438 397.4714660644531 753.1483154296875 397.0878295898438 C 752.21240234375 396.7211303710938 751.3692016601562 396.192626953125 750.6412963867188 395.5166015625 C 749.9223022460938 394.8481750488281 749.3558349609375 394.0674133300781 748.957763671875 393.1961975097656 C 748.5505981445312 392.3009948730469 748.343994140625 391.3478698730469 748.343994140625 390.364013671875 C 748.343994140625 389.2510681152344 748.6218872070312 388.1395263671875 749.1475830078125 387.1495056152344 C 749.6722412109375 386.1612243652344 750.4462890625 385.2813110351562 751.3861083984375 384.6047973632812 C 751.82763671875 384.2848510742188 752.2355346679688 383.9127197265625 752.5997314453125 383.4978637695312 C 753.1199340820312 382.9031372070312 753.5264892578125 382.241455078125 753.8087158203125 381.530517578125 C 754.048828125 380.9268493652344 754.1510620117188 380.2106323242188 754.1124267578125 379.4021301269531 L 754.0873413085938 378.89453125 L 754.5872192382812 379.170654296875 C 755.8556518554688 379.8735656738281 756.8681030273438 380.8825073242188 757.5958251953125 382.1691589355469 C 758.48388671875 383.7333374023438 758.8926391601562 385.15869140625 758.8110961914062 386.4063720703125 L 758.810791015625 386.4101257324219 L 758.8106079101562 386.4139099121094 C 758.8007202148438 386.6110534667969 758.884765625 386.8031005859375 759.03564453125 386.9290466308594 C 759.1509399414062 387.0262451171875 759.2965698242188 387.0797119140625 759.4463500976562 387.0797119140625 C 759.464111328125 387.0797119140625 759.4819946289062 387.0789489746094 759.499755859375 387.0774536132812 C 759.6550903320312 387.0660095214844 759.8009033203125 386.9992065429688 759.9115600585938 386.8885498046875 L 759.9156494140625 386.8844299316406 L 759.919677734375 386.8802185058594 C 760.4718627929688 386.3016967773438 760.8610229492188 385.7109069824219 761.0763549804688 385.1243286132812 L 761.2311401367188 384.7079162597656 L 761.5924072265625 385.0195617675781 C 762.385498046875 385.7038269042969 763.0075073242188 386.51513671875 763.4411010742188 387.4309692382812 C 763.8816528320312 388.3595275878906 764.10498046875 389.3468933105469 764.10498046875 390.3659973144531 C 764.10498046875 391.3504333496094 763.8980712890625 392.303466796875 763.4900512695312 393.1986083984375 C 763.094970703125 394.0693969726562 762.5292358398438 394.849609375 761.8080444335938 395.5183715820312 C 761.0869140625 396.1916809082031 760.2440185546875 396.7198791503906 759.3014526367188 397.0895080566406 C 758.3248901367188 397.4720153808594 757.2894287109375 397.6659851074219 756.2239990234375 397.6659851074219 Z" stroke="none"/>
        <path d="M 754.6202392578125 379.7683410644531 C 754.6162719726562 380.4920654296875 754.4999389648438 381.1455078125 754.2734375 381.7149963378906 C 753.9701538085938 382.4789733886719 753.5338745117188 383.1893310546875 752.9754638671875 383.8277587890625 C 752.5867309570312 384.2705383300781 752.151123046875 384.6678771972656 751.67822265625 385.0106201171875 C 750.8004150390625 385.6424560546875 750.0780639648438 386.463134765625 749.5891723632812 387.3840026855469 C 749.1016845703125 388.3020629882812 748.843994140625 389.3325500488281 748.843994140625 390.364013671875 C 748.843994140625 391.2759704589844 749.0355224609375 392.1594848632812 749.4125366210938 392.9884033203125 C 749.7831420898438 393.7995300292969 750.3111572265625 394.5270080566406 750.9815063476562 395.1502380371094 C 751.663330078125 395.7834167480469 752.453369140625 396.2785339355469 753.3316040039062 396.6226196289062 C 754.2467041015625 396.983154296875 755.2198486328125 397.1659851074219 756.2239990234375 397.1659851074219 C 757.2267456054688 397.1659851074219 758.2008666992188 396.9835815429688 759.118896484375 396.6240234375 C 760.0025024414062 396.2774963378906 760.7920532226562 395.782958984375 761.468017578125 395.1517639160156 C 762.1402587890625 394.5283813476562 762.667236328125 393.802001953125 763.0350952148438 392.9912414550781 C 763.4132080078125 392.16162109375 763.60498046875 391.2783813476562 763.60498046875 390.3659973144531 C 763.60498046875 389.4216003417969 763.3978881835938 388.50634765625 762.9891967773438 387.6449279785156 C 762.6181030273438 386.861083984375 762.097900390625 386.1588439941406 761.4412841796875 385.5545349121094 C 761.191162109375 386.1190490722656 760.802001953125 386.6799621582031 760.2813720703125 387.2254333496094 L 760.2649536132812 387.2422485351562 C 760.0696411132812 387.4374694824219 759.812255859375 387.5554504394531 759.5379028320312 387.5760192871094 C 759.2406616210938 387.6002502441406 758.9445190429688 387.5049133300781 758.7161865234375 387.313720703125 C 758.4447021484375 387.0875854492188 758.29345703125 386.74267578125 758.311279296875 386.3888244628906 L 758.3121337890625 386.3737487792969 C 758.38720703125 385.2251586914062 758.0000610351562 383.8938293457031 757.1605834960938 382.4153137207031 C 756.532470703125 381.3047485351562 755.678466796875 380.4154052734375 754.6202392578125 379.7683410644531 M 753.7514038085938 378.1656188964844 C 753.7830810546875 378.1656188964844 753.8155517578125 378.1732177734375 753.8460083007812 378.1900024414062 L 754.8289794921875 378.7330017089844 C 756.177001953125 379.4800109863281 757.2550048828125 380.5509948730469 758.031005859375 381.9230041503906 C 758.968994140625 383.5750122070312 759.3980102539062 385.0929870605469 759.3099975585938 386.4389953613281 C 759.3079833984375 386.47900390625 759.323974609375 386.5190124511719 759.3569946289062 386.5459899902344 C 759.3849487304688 386.5699768066406 759.4218139648438 386.5829467773438 759.4600219726562 386.5790100097656 C 759.4970092773438 386.5769958496094 759.531982421875 386.5610046386719 759.5579833984375 386.5350036621094 C 760.0599975585938 386.0090026855469 760.4149780273438 385.4750061035156 760.6069946289062 384.9519958496094 L 760.9169921875 384.1180114746094 C 760.9619750976562 383.9980773925781 761.1239013671875 383.9599304199219 761.2269897460938 384.0440063476562 L 761.9190063476562 384.6409912109375 C 762.7639770507812 385.3699951171875 763.4290161132812 386.2369995117188 763.8930053710938 387.2170104980469 C 764.3670043945312 388.2160034179688 764.60498046875 389.2749938964844 764.60498046875 390.3659973144531 C 764.60498046875 391.4209899902344 764.3839721679688 392.4429931640625 763.9450073242188 393.406005859375 C 763.5239868164062 394.3340148925781 762.9190063476562 395.1700134277344 762.1480102539062 395.885009765625 C 761.3790283203125 396.6029968261719 760.4810180664062 397.1640014648438 759.4840087890625 397.5549926757812 C 758.4500122070312 397.9599914550781 757.35498046875 398.1659851074219 756.2239990234375 398.1659851074219 C 755.093017578125 398.1659851074219 753.9979858398438 397.9599914550781 752.9650268554688 397.5530090332031 C 751.9669799804688 397.1619873046875 751.072021484375 396.5989990234375 750.301025390625 395.8829956054688 C 749.531982421875 395.1679992675781 748.927001953125 394.3320007324219 748.5029907226562 393.4039916992188 C 748.0650024414062 392.4410095214844 747.843994140625 391.4190063476562 747.843994140625 390.364013671875 C 747.843994140625 389.1700134277344 748.1409912109375 387.97900390625 748.7059936523438 386.9150085449219 C 749.2650146484375 385.8619995117188 750.0910034179688 384.9209899902344 751.093994140625 384.1990051269531 C 751.5079956054688 383.8989868164062 751.885986328125 383.5530090332031 752.2239990234375 383.1679992675781 C 752.7050170898438 382.6180114746094 753.0819702148438 382.0060119628906 753.343994140625 381.3460083007812 C 753.5579833984375 380.8080139160156 753.6480102539062 380.1589965820312 753.6129760742188 379.4259948730469 L 753.5599975585938 378.3529968261719 C 753.5546264648438 378.2453002929688 753.6490478515625 378.1656188964844 753.7514038085938 378.1656188964844 Z" stroke="none" fill="#202020"/>
      </g>
      <path id="Path_100" data-name="Path 100" d="M752.536,387.239s-2.647,2.29-.46,5.9" transform="translate(-747.844 -378.166)" fill="#fff" stroke="#202020" stroke-linecap="round" stroke-miterlimit="10" stroke-width="1"/>
    </g>
  </g>
</svg>
