<svg xmlns="http://www.w3.org/2000/svg" width="56" height="56" viewBox="0 0 56 56">
  <g id="Group_867" data-name="Group 867" transform="translate(-205 -27)">
    <circle id="Ellipse_69" data-name="Ellipse 69" cx="28" cy="28" r="28" transform="translate(205 27)" fill="#fff"/>
    <g id="Group_866" data-name="Group 866" transform="translate(216.845 41.362)">
      <path id="Path_578" data-name="Path 578" d="M533.681,832.8a7.671,7.671,0,0,0-1.437-3.544c-.955-1.66-.413-5.039-.349-5.007a2.441,2.441,0,0,0-2.361.287,17.96,17.96,0,0,1,0,4.754c-7.69,15.507-20.867,12.38-22.558,12.412s-1.445.276-1.532.351c-.989.861-.766,1.532-.7,1.436,6,6.381,14.837,5.488,20.995,1.276S533.84,834.742,533.681,832.8Z" transform="translate(-504.084 -823.19)" fill="#ffd630"/>
      <g id="Group_865" data-name="Group 865" transform="translate(0 0)">
        <path id="Path_579" data-name="Path 579" d="M502.7,838.119c.087-.075-.16-.319,1.531-.351s14.869,3.095,22.558-12.412a17.977,17.977,0,0,0,0-4.754,2.442,2.442,0,0,1,2.361-.287c-.064-.032-.606,3.35.351,5.009a7.7,7.7,0,0,1,1.436,3.542c.16,1.946-1.787,7.753-7.945,11.965s-15,5.105-20.995-1.276C501.938,839.651,501.714,838.98,502.7,838.119Z" transform="translate(-501.935 -820.107)" fill="none" stroke="#202020" stroke-linecap="round" stroke-linejoin="round" stroke-width="0.75"/>
        <path id="Path_580" data-name="Path 580" d="M502.246,904.6s.973-.479,1.037-.862a1.033,1.033,0,0,0-.23-.732" transform="translate(-502.179 -885.152)" fill="none" stroke="#202020" stroke-linecap="round" stroke-linejoin="round" stroke-width="0.75"/>
        <path id="Path_581" data-name="Path 581" d="M618.046,823.006a3.3,3.3,0,0,1,.889.19c.167.12.287-1.292.263-1.484s.71-.391,1.061-.638" transform="translate(-593.039 -820.866)" fill="none" stroke="#202020" stroke-linecap="round" stroke-linejoin="round" stroke-width="0.75"/>
        <path id="Path_582" data-name="Path 582" d="M618.657,822.758a2.936,2.936,0,0,1-1.3-.351" transform="translate(-592.498 -821.912)" fill="none" stroke="#202020" stroke-linecap="round" stroke-linejoin="round" stroke-width="0.75"/>
        <path id="Path_583" data-name="Path 583" d="M617.357,843.146a2.141,2.141,0,0,1,1.4,0c.335.215.486-.4,1.152-.365" transform="translate(-592.498 -837.897)" fill="none" stroke="#202020" stroke-linecap="round" stroke-linejoin="round" stroke-width="0.75"/>
        <path id="Path_584" data-name="Path 584" d="M547.172,923.644a12.622,12.622,0,0,0,6.31-.718" transform="translate(-537.429 -900.782)" fill="none" stroke="#202020" stroke-linecap="round" stroke-linejoin="round" stroke-width="0.75"/>
        <path id="Path_585" data-name="Path 585" d="M586.32,913.736a13.558,13.558,0,0,0,1.914-1.181" transform="translate(-568.146 -892.644)" fill="none" stroke="#202020" stroke-linecap="round" stroke-linejoin="round" stroke-width="0.75"/>
        <path id="Path_586" data-name="Path 586" d="M531.853,830.926a5.68,5.68,0,0,1,.359,2.919c-6.921,21.43-25.151,13.337-25.151,13.337" transform="translate(-505.957 -828.596)" fill="none" stroke="#202020" stroke-linecap="round" stroke-linejoin="round" stroke-width="0.75"/>
        <path id="Path_587" data-name="Path 587" d="M628.507,857.814a2.338,2.338,0,0,1-.187,1.851" transform="translate(-601.1 -849.693)" fill="none" stroke="#202020" stroke-linecap="round" stroke-linejoin="round" stroke-width="0.75"/>
      </g>
    </g>
  </g>
</svg>
