<svg xmlns="http://www.w3.org/2000/svg" width="118.576" height="17.385" viewBox="0 0 118.576 17.385">
  <g id="Group_872" data-name="Group 872" transform="translate(-513 -461)">
    <path id="Icon_ionic-ios-star" data-name="Icon ionic-ios-star" d="M20.262,9.393H14.115L12.247,3.818a.677.677,0,0,0-1.27,0L9.108,9.393H2.919a.671.671,0,0,0-.669.669.491.491,0,0,0,.013.113.642.642,0,0,0,.28.472L7.6,14.207,5.656,19.845a.671.671,0,0,0,.23.752.647.647,0,0,0,.376.163.819.819,0,0,0,.418-.15L11.611,17.1l4.931,3.515a.783.783,0,0,0,.418.15.6.6,0,0,0,.372-.163.662.662,0,0,0,.23-.752l-1.939-5.638,5.011-3.594.121-.1a.7.7,0,0,0,.217-.447A.708.708,0,0,0,20.262,9.393Z" transform="translate(510.75 457.625)" fill="#202020"/>
    <path id="Icon_ionic-ios-star-2" data-name="Icon ionic-ios-star" d="M20.262,9.393H14.115L12.247,3.818a.677.677,0,0,0-1.27,0L9.108,9.393H2.919a.671.671,0,0,0-.669.669.491.491,0,0,0,.013.113.642.642,0,0,0,.28.472L7.6,14.207,5.656,19.845a.671.671,0,0,0,.23.752.647.647,0,0,0,.376.163.819.819,0,0,0,.418-.15L11.611,17.1l4.931,3.515a.783.783,0,0,0,.418.15.6.6,0,0,0,.372-.163.662.662,0,0,0,.23-.752l-1.939-5.638,5.011-3.594.121-.1a.7.7,0,0,0,.217-.447A.708.708,0,0,0,20.262,9.393Z" transform="translate(535.713 457.625)" fill="#202020"/>
    <path id="Icon_ionic-ios-star-3" data-name="Icon ionic-ios-star" d="M20.262,9.393H14.115L12.247,3.818a.677.677,0,0,0-1.27,0L9.108,9.393H2.919a.671.671,0,0,0-.669.669.491.491,0,0,0,.013.113.642.642,0,0,0,.28.472L7.6,14.207,5.656,19.845a.671.671,0,0,0,.23.752.647.647,0,0,0,.376.163.819.819,0,0,0,.418-.15L11.611,17.1l4.931,3.515a.783.783,0,0,0,.418.15.6.6,0,0,0,.372-.163.662.662,0,0,0,.23-.752l-1.939-5.638,5.011-3.594.121-.1a.7.7,0,0,0,.217-.447A.708.708,0,0,0,20.262,9.393Z" transform="translate(560.677 457.625)" fill="#202020"/>
    <path id="Icon_ionic-ios-star-4" data-name="Icon ionic-ios-star" d="M20.262,9.393H14.115L12.247,3.818a.677.677,0,0,0-1.27,0L9.108,9.393H2.919a.671.671,0,0,0-.669.669.491.491,0,0,0,.013.113.642.642,0,0,0,.28.472L7.6,14.207,5.656,19.845a.671.671,0,0,0,.23.752.647.647,0,0,0,.376.163.819.819,0,0,0,.418-.15L11.611,17.1l4.931,3.515a.783.783,0,0,0,.418.15.6.6,0,0,0,.372-.163.662.662,0,0,0,.23-.752l-1.939-5.638,5.011-3.594.121-.1a.7.7,0,0,0,.217-.447A.708.708,0,0,0,20.262,9.393Z" transform="translate(585.64 457.625)" fill="#202020"/>
    <path id="Icon_ionic-ios-star-half" data-name="Icon ionic-ios-star-half" d="M20.262,9.393H14.115L12.247,3.818a.677.677,0,0,0-1.27,0L9.108,9.393H2.919a.671.671,0,0,0-.669.669.491.491,0,0,0,.013.113.642.642,0,0,0,.28.472L7.6,14.207,5.656,19.845a.671.671,0,0,0,.23.752.647.647,0,0,0,.376.163.819.819,0,0,0,.418-.15L11.611,17.1l4.931,3.515a.783.783,0,0,0,.418.15.6.6,0,0,0,.372-.163.662.662,0,0,0,.23-.752l-1.939-5.638,5.011-3.594.121-.1a.7.7,0,0,0,.217-.447A.708.708,0,0,0,20.262,9.393Zm-1.981,1.471-3.335,2.395a1.174,1.174,0,0,0-.426,1.329l1.258,3.665a.168.168,0,0,1-.255.192l-3.235-2.307,0,0a1.558,1.558,0,0,1-.673-1.275V6.1a.081.081,0,0,1,.159-.025h0l1.237,3.686a1.169,1.169,0,0,0,1.107.8h4.066A.167.167,0,0,1,18.281,10.864Z" transform="translate(610.604 457.625)" fill="#202020"/>
  </g>
</svg>
